<?xml version="1.0" standalone="no"?>
<!DOCTYPE svg PUBLIC "-//W3C//DTD SVG 20010904//EN"
 "http://www.w3.org/TR/2001/REC-SVG-20010904/DTD/svg10.dtd">
<svg version="1.0" xmlns="http://www.w3.org/2000/svg"
 width="2100.000000pt" height="2100.000000pt" viewBox="0 0 2100.000000 2100.000000"
 preserveAspectRatio="xMidYMid meet">
<metadata>
Created by potrace 1.11, written by Peter Selinger 2001-2013
</metadata>
<g transform="translate(0.000000,2100.000000) scale(0.100000,-0.100000)"
fill="#000000" stroke="none">
<path d="M10106 15893 l-79 -4 7 -67 c4 -36 8 -67 9 -69 2 -1 63 2 137 7 74 5
186 9 248 10 l112 0 0 65 0 65 -177 -2 c-98 -1 -213 -4 -257 -5z"/>
<path d="M10780 15876 c0 -13 -3 -43 -6 -68 l-6 -45 113 -7 c63 -4 166 -14
229 -22 169 -21 156 -24 167 49 6 34 10 63 8 65 -3 3 -333 39 -427 46 -77 6
-78 5 -78 -18z"/>
<path d="M9600 15830 c-190 -33 -299 -55 -306 -63 -7 -7 17 -116 27 -123 4 -2
75 9 157 26 82 16 191 35 241 42 91 12 92 12 87 37 -3 14 -8 45 -11 69 -4 23
-12 42 -18 41 -7 0 -86 -13 -177 -29z"/>
<path d="M11511 15744 c-7 -37 -11 -67 -9 -68 2 -2 51 -13 111 -25 59 -12 165
-38 235 -56 70 -19 130 -31 133 -27 9 10 39 115 34 120 -6 7 -215 61 -335 87
-63 14 -125 28 -136 30 -20 4 -23 -1 -33 -61z"/>
<path d="M9025 15703 c-54 -13 -446 -146 -450 -153 -4 -6 30 -103 41 -119 2
-2 100 28 218 68 118 39 221 71 229 71 9 0 18 4 21 8 6 10 -24 132 -33 131 -3
-1 -15 -3 -26 -6z"/>
<path d="M12225 15550 c-10 -33 -16 -62 -14 -63 2 -2 51 -20 109 -42 58 -21
157 -60 220 -86 63 -27 119 -49 123 -49 11 0 59 109 52 120 -10 16 -428 180
-459 180 -7 0 -21 -27 -31 -60z"/>
<path d="M10090 15569 c-1170 -96 -2279 -602 -3119 -1424 -605 -592 -1031
-1279 -1291 -2080 -113 -350 -195 -755 -226 -1112 l-7 -83 1352 0 c1073 0
1351 3 1352 13 1 6 2 31 3 54 1 23 5 45 9 49 3 4 2 15 -4 25 -5 11 -6 19 -2
19 5 0 8 28 7 63 0 34 4 68 9 75 6 7 6 12 0 12 -5 0 -8 15 -6 33 2 30 -1 44
-29 102 -6 13 -43 45 -82 69 -39 25 -76 50 -83 55 -7 6 -17 11 -23 11 -5 0
-10 5 -10 10 0 6 -5 10 -11 10 -12 0 -88 57 -101 75 -4 5 -8 7 -8 3 0 -4 -27
20 -59 53 -48 48 -68 80 -105 164 -25 57 -47 114 -49 127 -2 12 -9 36 -16 52
-14 35 -33 174 -25 187 3 5 2 9 -3 9 -8 0 -8 67 1 110 3 14 8 41 10 60 11 72
18 106 32 145 8 22 17 47 19 55 2 8 4 17 5 20 1 3 2 8 1 13 0 4 3 7 7 7 5 0 9
6 9 13 0 36 144 287 165 287 4 0 8 4 8 10 0 12 67 76 122 117 48 35 161 90
198 97 14 2 26 5 28 7 1 1 10 2 20 3 9 1 22 4 27 7 11 5 110 4 135 -3 8 -2 21
-7 28 -11 6 -5 17 -5 22 -2 6 3 10 1 10 -5 0 -7 6 -10 13 -7 6 2 29 -7 49 -20
21 -12 41 -23 45 -23 5 0 21 -12 36 -26 16 -14 30 -24 32 -22 2 2 -14 30 -36
63 -44 66 -97 171 -102 201 -1 11 -5 24 -8 29 -11 18 -59 212 -64 257 -9 72
-6 235 5 311 6 40 13 87 16 105 2 19 8 41 13 50 5 9 7 25 6 35 -2 9 1 17 6 17
5 0 9 10 9 23 0 13 5 28 12 35 7 7 8 12 4 12 -5 0 -3 6 3 14 6 8 11 18 10 22
-2 5 5 28 15 51 10 23 17 44 16 45 -3 5 85 171 119 226 18 28 37 52 42 52 5 0
8 3 7 8 -4 11 14 31 129 148 55 57 108 104 117 104 9 0 16 4 16 8 0 5 17 17
38 28 20 10 45 26 56 34 10 8 21 14 25 14 3 -1 17 2 29 7 13 5 28 7 33 3 5 -3
9 0 9 7 0 7 3 9 6 6 4 -3 16 -1 28 5 23 13 49 17 116 21 25 2 51 7 58 11 7 4
12 3 12 -3 0 -5 8 -8 17 -7 10 2 48 -5 85 -15 38 -9 68 -15 68 -13 0 3 13 -2
29 -10 16 -9 31 -12 35 -9 3 4 6 2 6 -3 0 -6 17 -16 38 -24 37 -13 91 -47 104
-65 5 -6 8 -6 8 -1 0 6 8 1 18 -10 10 -10 34 -30 52 -44 62 -47 135 -125 203
-216 37 -50 67 -94 67 -97 0 -3 20 -40 45 -81 25 -42 45 -81 45 -86 0 -5 9
-25 20 -45 11 -19 17 -35 14 -35 -4 0 -1 -6 5 -13 6 -8 8 -17 4 -20 -3 -4 0
-7 7 -7 7 0 11 -3 8 -6 -4 -3 -2 -20 4 -37 10 -33 25 -87 33 -122 5 -19 10
-50 21 -140 5 -36 5 -186 0 -275 -1 -19 -5 -40 -8 -46 -4 -5 -5 -19 -4 -30 2
-10 1 -23 -3 -29 -3 -5 -6 -17 -6 -25 -1 -22 -16 -83 -23 -95 -4 -5 -8 -18 -9
-27 -2 -9 -21 -56 -43 -104 -70 -153 -151 -250 -303 -366 -16 -13 -39 -31 -51
-41 -59 -50 -84 -69 -119 -92 -21 -14 -42 -25 -47 -25 -6 0 -10 -4 -10 -9 0
-5 -8 -11 -17 -15 -18 -5 -53 -26 -63 -36 -14 -14 -70 -50 -78 -50 -13 0 -44
-67 -50 -109 -13 -82 -4 -528 10 -548 5 -6 5 -14 -2 -18 -6 -3 -7 -11 -4 -17
7 -10 12 -56 18 -163 2 -33 5 -60 6 -60 1 0 3 -70 5 -155 5 -180 11 -326 20
-460 4 -52 7 -107 7 -122 l0 -28 524 0 c288 0 524 3 525 8 0 4 2 16 5 27 3 19
9 78 18 190 26 315 26 551 0 665 -4 14 -7 34 -8 45 -2 11 -6 29 -9 40 -9 28
-17 88 -21 170 -5 83 -10 118 -20 134 -10 16 -19 92 -20 178 -1 40 -3 73 -6
73 -3 0 -6 64 -8 143 -5 315 -7 362 -17 369 -7 5 -7 8 0 8 6 0 9 19 7 42 -8
99 -7 905 0 921 5 9 5 17 1 17 -9 0 -8 222 1 245 3 8 1 17 -4 20 -7 4 -7 13 0
24 5 10 7 21 4 24 -5 5 -8 161 -4 182 1 6 2 13 1 18 -5 17 -3 128 2 133 2 3 1
21 -3 40 -5 20 -4 34 1 34 6 0 6 8 0 18 -7 13 -6 23 1 30 9 9 9 12 -2 12 -11
0 -11 3 -2 12 7 7 8 17 1 30 -5 10 -6 18 -2 18 7 0 9 74 2 90 -1 3 0 10 1 15
1 6 3 62 5 126 1 64 8 134 15 155 18 56 95 121 123 102 1 -1 12 4 23 10 12 6
24 8 28 4 4 -3 20 -7 35 -7 28 -1 96 -41 136 -80 31 -30 105 -133 105 -145 0
-6 11 -28 25 -50 14 -22 23 -40 20 -40 -2 0 4 -15 14 -32 15 -29 88 -237 96
-278 2 -8 8 -35 15 -60 14 -53 19 -74 27 -115 8 -47 11 -60 13 -60 1 0 4 -11
6 -25 5 -32 12 -65 14 -65 1 0 3 -13 5 -30 2 -28 7 -62 21 -145 3 -19 7 -53 9
-75 1 -22 4 -40 4 -40 3 0 11 -93 17 -190 10 -167 12 -890 2 -902 -7 -9 -7
-13 0 -13 6 0 8 -12 6 -27 -6 -37 -17 -188 -18 -240 0 -24 -3 -43 -6 -43 -3 0
-6 -21 -6 -47 -3 -89 -22 -363 -30 -428 -2 -22 -6 -60 -9 -85 -6 -69 -14 -107
-34 -155 -7 -16 -14 -34 -16 -40 -4 -18 -48 -110 -54 -115 -3 -3 -7 -32 -9
-65 -6 -115 -8 -605 -2 -605 3 0 6 -26 7 -57 0 -32 1 -70 2 -85 l1 -28 459 0
459 0 1 58 c1 31 4 91 7 132 10 153 15 268 17 385 1 69 6 123 12 127 7 5 7 8
0 8 -12 0 -14 104 -3 116 4 3 3 15 -3 25 -7 14 -6 19 3 19 8 0 9 3 3 8 -6 4
-10 62 -10 137 0 72 -2 134 -4 139 -2 5 -4 48 -4 95 0 47 -4 94 -9 104 -6 11
-5 17 2 17 6 0 9 4 5 10 -3 5 -7 33 -9 62 -7 88 -16 138 -38 192 -11 28 -18
52 -16 52 6 3 -48 70 -88 109 -57 55 -154 143 -154 139 0 -7 -87 84 -112 117
-15 20 -35 56 -44 80 -9 24 -21 48 -26 53 -4 6 -8 19 -8 31 0 12 -6 27 -12 33
-15 15 -18 325 -6 502 9 129 19 271 22 327 1 23 5 45 9 49 3 4 2 14 -3 24 -5
10 -7 20 -3 24 6 6 11 50 17 176 3 41 5 75 6 75 2 0 6 28 14 120 3 39 8 88 12
110 6 45 13 107 19 175 3 25 7 65 9 90 5 43 15 147 20 200 5 47 16 69 36 67
18 -1 20 -9 20 -102 0 -55 2 -149 5 -210 3 -60 7 -193 10 -294 3 -101 7 -186
9 -189 3 -2 1 -15 -4 -28 -5 -13 -6 -26 -1 -28 4 -3 6 -19 3 -36 -2 -18 0 -30
7 -30 7 0 8 -8 1 -24 -5 -13 -6 -27 -2 -31 4 -3 8 -41 9 -83 4 -151 13 -327
16 -354 3 -16 0 -28 -5 -28 -5 0 -5 -7 0 -17 5 -10 8 -53 7 -96 -1 -81 9 -105
46 -119 24 -9 42 31 41 94 0 29 5 59 10 66 7 8 7 16 -1 25 -6 8 -8 16 -5 20 6
5 16 181 18 315 0 39 5 72 9 72 4 0 3 9 -3 20 -6 11 -7 20 -3 20 4 0 9 42 10
93 1 50 4 144 7 207 7 147 16 335 19 425 1 39 -1 80 -4 91 -4 12 -3 26 4 33 8
8 8 11 -2 11 -7 0 -9 5 -5 11 3 6 6 46 7 90 0 71 2 79 19 79 18 0 19 -6 16
-80 -2 -44 -1 -80 2 -80 3 0 6 -109 8 -243 1 -133 5 -350 8 -482 3 -132 6
-300 7 -372 1 -73 4 -133 7 -133 3 0 6 -28 6 -63 2 -87 10 -166 17 -174 4 -3
7 -14 7 -23 0 -12 9 -16 37 -15 34 0 38 3 45 35 4 19 10 91 13 160 4 69 9 161
11 205 3 44 4 89 4 100 -1 24 -2 11 5 160 7 134 13 230 14 230 1 0 8 133 16
335 2 41 4 76 4 78 4 7 1 333 -3 340 -8 13 9 31 21 24 14 -9 22 -124 37 -539
0 -23 4 -45 8 -48 4 -4 4 -15 -1 -24 -4 -9 -6 -32 -4 -51 4 -40 4 -42 0 -90
-1 -19 2 -38 8 -42 6 -5 5 -8 -3 -8 -8 0 -10 -5 -5 -12 4 -7 9 -96 10 -198 1
-102 2 -185 3 -185 1 0 3 -56 5 -125 4 -128 11 -253 15 -257 1 -2 2 -18 3 -35
1 -40 14 -56 44 -52 48 5 59 24 58 99 -1 39 3 76 8 83 6 8 6 12 -1 12 -6 0 -8
12 -6 28 3 15 7 114 9 221 3 108 9 199 15 206 5 6 7 14 4 17 -10 11 -13 67 -3
73 5 4 7 11 3 16 -8 14 -12 59 -5 59 3 0 7 39 7 88 2 85 8 204 20 407 4 55 7
125 8 155 1 31 6 61 10 68 4 7 3 12 -1 12 -10 0 -10 41 1 58 4 7 2 12 -4 12
-7 0 -8 6 -1 19 6 10 8 21 5 23 -3 3 6 8 20 10 18 4 27 0 31 -11 4 -15 14
-128 20 -236 1 -27 4 -50 5 -50 1 0 3 -29 5 -65 3 -36 7 -83 9 -105 8 -65 20
-255 21 -318 0 -31 2 -57 5 -57 4 0 11 -135 13 -277 1 -29 4 -53 7 -53 3 0 6
-19 7 -42 0 -24 4 -74 7 -113 4 -38 9 -99 11 -135 2 -36 7 -103 10 -150 14
-214 9 -345 -19 -455 -1 -5 -13 -32 -26 -60 -13 -27 -24 -53 -24 -56 -2 -17
-69 -109 -78 -109 -11 0 -77 -68 -126 -130 -15 -19 -34 -41 -42 -50 -12 -12
-14 -45 -12 -190 4 -232 6 -270 12 -270 3 0 7 -24 8 -52 5 -102 7 -118 12
-118 3 0 6 -15 7 -32 1 -33 10 -123 17 -188 4 -35 12 -111 20 -208 3 -29 10
-95 16 -145 5 -51 13 -117 16 -147 2 -30 7 -73 9 -95 5 -57 14 -132 21 -190 3
-27 6 -58 6 -67 -1 -17 21 -18 329 -18 l329 0 -5 110 c-2 61 -6 114 -9 119 -3
4 -8 23 -11 41 -3 19 -10 39 -15 45 -4 5 -9 13 -9 17 -4 20 -38 68 -48 68 -7
0 -13 5 -13 10 0 6 -6 10 -14 10 -8 0 -22 7 -30 16 -9 8 -16 12 -16 7 0 -4 -4
-3 -8 2 -4 6 -27 21 -52 34 -25 14 -48 29 -52 35 -4 6 -8 7 -8 3 0 -4 -29 21
-64 57 -60 62 -78 93 -113 201 -10 32 -10 215 1 280 4 22 9 58 12 80 5 40 7
59 18 128 16 101 22 150 30 232 5 50 13 103 23 160 2 17 7 46 9 65 3 19 7 49
9 65 3 17 7 55 9 85 3 30 6 55 7 55 1 0 3 16 4 35 5 64 15 128 25 154 5 14 6
26 2 26 -4 0 1 5 11 11 41 24 45 2 46 -234 1 -176 6 -407 12 -482 0 -5 -1 -43
-4 -82 -3 -50 -1 -73 7 -73 6 0 5 -4 -3 -9 -11 -7 -11 -9 0 -14 11 -4 11 -6 1
-6 -9 -1 -10 -6 -3 -20 6 -10 8 -21 5 -24 -3 -3 -3 -29 1 -56 5 -35 12 -51 22
-51 8 0 11 4 8 10 -4 7 2 7 19 0 19 -7 30 -5 50 11 13 11 25 27 24 37 0 18 9
112 17 177 10 85 21 204 29 320 6 71 14 169 19 215 1 14 6 31 10 38 5 6 4 12
0 12 -9 0 -8 19 2 100 3 19 7 51 8 71 5 50 12 58 45 50 25 -7 27 -12 29 -62 1
-30 2 -56 3 -59 0 -3 0 -84 0 -180 -2 -214 0 -639 3 -700 2 -44 3 -45 35 -45
19 0 36 3 39 8 2 4 9 5 14 2 5 -4 9 -3 10 2 0 4 3 17 5 28 6 26 11 65 19 150
3 39 8 84 11 100 2 17 6 57 9 90 2 33 5 60 5 60 2 0 8 50 14 130 4 44 9 94 11
110 6 57 14 150 20 235 4 47 8 92 10 100 5 17 54 21 57 5 0 -5 2 -21 4 -35 1
-14 5 -43 9 -65 4 -22 8 -67 10 -100 3 -33 7 -85 11 -115 3 -30 6 -74 7 -97 0
-24 3 -43 6 -43 3 0 7 -24 8 -53 6 -154 19 -382 23 -382 1 0 3 -27 3 -60 1
-33 6 -66 11 -74 7 -10 6 -12 -4 -6 -10 6 -11 4 -4 -6 4 -8 9 -36 10 -64 2
-27 3 -50 4 -50 1 0 3 -16 6 -35 6 -49 11 -75 14 -77 6 -7 5 -52 -2 -88 -11
-52 -49 -145 -60 -145 -4 0 -8 -7 -8 -15 0 -8 -4 -15 -10 -15 -5 0 -10 -5 -10
-11 0 -6 -22 -34 -49 -62 -133 -140 -132 -138 -126 -213 3 -32 7 -102 10 -154
3 -52 8 -107 11 -122 l6 -28 1185 0 1186 0 -7 83 c-130 1534 -978 2951 -2273
3801 -722 473 -1527 748 -2387 816 -151 12 -655 11 -806 -1z m2687 -3531 c-3
-7 -5 -2 -5 12 0 14 2 19 5 13 2 -7 2 -19 0 -25z"/>
<path d="M8125 15355 c-115 -57 -216 -108 -223 -113 -11 -7 -7 -21 18 -66 18
-31 33 -56 35 -56 2 0 99 47 216 105 118 58 218 106 222 108 10 3 -36 120 -49
124 -5 1 -103 -44 -219 -102z"/>
<path d="M12907 15265 c-15 -31 -27 -58 -27 -60 0 -3 32 -21 70 -40 39 -20
136 -74 216 -121 80 -47 147 -84 149 -82 10 11 65 103 65 109 0 13 -412 249
-436 249 -6 0 -22 -25 -37 -55z"/>
<path d="M7493 14991 c-98 -66 -191 -130 -206 -143 l-28 -23 38 -52 c21 -29
43 -51 49 -49 5 2 51 34 101 70 51 36 138 95 195 132 57 36 105 68 107 70 6 5
-62 114 -71 114 -4 0 -87 -54 -185 -119z"/>
<path d="M13544 14886 c-20 -31 -35 -58 -33 -60 2 -2 58 -44 124 -93 66 -50
152 -116 190 -147 39 -31 73 -56 76 -56 3 0 25 22 48 50 l41 49 -67 56 c-72
60 -270 210 -315 239 l-27 18 -37 -56z"/>
<path d="M6910 14541 c-85 -76 -170 -154 -187 -173 l-33 -34 49 -48 49 -49 94
90 c51 49 131 123 178 163 47 41 85 80 85 87 0 13 -65 102 -75 102 -3 1 -75
-62 -160 -138z"/>
<path d="M14120 14420 l-41 -49 175 -177 175 -176 45 38 c25 22 45 45 46 52 0
13 -337 362 -351 362 -4 0 -26 -22 -49 -50z"/>
<path d="M6484 14118 c-92 -98 -284 -332 -284 -346 0 -6 61 -53 95 -74 8 -5
38 25 81 80 38 48 102 125 143 172 41 47 81 93 90 103 13 16 11 21 -29 62 -24
25 -47 45 -50 45 -3 0 -24 -19 -46 -42z"/>
<path d="M14628 13883 c-26 -21 -47 -40 -48 -43 0 -4 36 -53 81 -110 44 -57
108 -142 141 -189 33 -47 64 -90 68 -94 9 -10 110 53 110 68 0 23 -272 394
-295 402 -6 2 -31 -14 -57 -34z"/>
<path d="M5990 13482 c-72 -109 -200 -322 -200 -333 0 -9 109 -73 114 -68 2 2
33 54 69 114 36 61 94 154 130 208 l65 98 -32 23 c-17 13 -42 31 -56 39 l-25
16 -65 -97z"/>
<path d="M15060 13280 c-25 -16 -49 -31 -53 -32 -5 -2 22 -55 59 -118 36 -63
89 -160 116 -215 28 -55 52 -102 54 -104 4 -5 103 38 118 50 14 12 -223 450
-242 448 -4 0 -27 -13 -52 -29z"/>
<path d="M5610 12806 c-69 -144 -140 -313 -140 -331 0 -15 110 -59 120 -48 4
4 31 64 60 133 29 69 73 164 96 212 24 48 44 91 44 96 0 7 -102 62 -116 62 -3
0 -32 -56 -64 -124z"/>
<path d="M8751 12807 c-1 -4 17 -34 38 -66 49 -71 93 -161 110 -224 8 -26 18
-47 22 -47 5 0 8 -3 7 -7 -3 -12 24 -126 35 -147 7 -13 6 -16 -3 -11 -9 5 -10
2 -3 -11 10 -19 10 -226 1 -274 -16 -78 -72 -237 -89 -250 -3 -3 -13 -18 -22
-35 -8 -16 -25 -40 -36 -52 -12 -12 -21 -25 -21 -28 0 -8 -15 -26 -92 -107
-38 -39 -68 -67 -68 -63 0 4 -15 -5 -32 -19 -48 -38 -49 -39 -98 -73 -97 -67
-142 -135 -155 -233 -2 -14 -4 -25 -5 -25 -1 0 -3 -60 -5 -132 l-3 -133 378 0
377 0 13 138 c8 75 13 140 12 145 -1 4 3 7 9 7 7 0 8 5 3 13 -8 11 -10 34 -4
47 1 3 3 23 5 45 1 22 5 78 9 125 4 47 9 117 11 155 2 39 6 77 9 85 2 8 5 38
5 65 0 28 3 79 5 115 3 36 7 102 10 148 3 46 8 88 11 93 4 5 1 9 -6 9 -8 0 -9
3 0 13 6 8 8 17 5 20 -6 6 -6 50 -1 207 1 36 -3 92 -10 125 -7 32 -10 61 -8
64 3 2 -6 13 -18 25 -86 78 -135 119 -154 129 -13 5 -23 14 -23 19 0 4 -7 8
-15 8 -8 0 -15 5 -15 10 0 6 -4 10 -9 10 -11 0 -135 82 -139 92 -2 4 -10 8
-17 8 -7 0 -16 6 -18 13 -3 6 -6 8 -6 4z"/>
<path d="M15395 12619 c-22 -10 -44 -20 -49 -22 -4 -1 21 -77 57 -167 35 -91
75 -195 87 -232 12 -38 25 -68 29 -68 14 0 106 33 115 40 9 9 -33 134 -115
343 -55 139 -55 139 -124 106z"/>
<path d="M5346 12131 c-35 -108 -108 -373 -103 -377 9 -8 123 -32 128 -26 3 4
23 72 44 152 21 80 51 183 67 229 15 47 27 86 25 87 -4 4 -112 44 -119 44 -4
0 -23 -49 -42 -109z"/>
<path d="M15650 11924 c-25 -8 -50 -16 -57 -18 -8 -4 -6 -25 8 -78 10 -40 35
-147 55 -238 19 -90 37 -167 39 -169 5 -5 116 17 123 24 13 13 -97 487 -113
491 -6 1 -30 -4 -55 -12z"/>
<path d="M5185 11491 c-22 -108 -70 -469 -63 -476 2 -2 32 -5 68 -7 l64 -3 13
115 c7 63 22 171 34 238 11 68 17 127 14 130 -4 4 -33 12 -65 18 -59 10 -59
10 -65 -15z"/>
<path d="M15761 11193 l-33 -4 5 -52 c3 -29 11 -122 17 -207 6 -85 14 -174 16
-197 l5 -43 65 0 64 0 0 53 c0 60 -28 389 -36 430 -6 29 -15 30 -103 20z"/>
<path d="M7520 10832 c-124 -9 -260 -73 -351 -163 -79 -78 -108 -143 -103
-226 5 -83 43 -125 122 -137 l42 -5 -13 32 c-9 20 -13 61 -11 109 5 168 101
276 274 311 232 47 329 -53 329 -337 -1 -266 -110 -557 -220 -581 -142 -31
-193 309 -92 620 21 65 59 150 90 198 13 22 23 41 21 43 -11 10 -88 8 -125 -4
-72 -23 -141 -118 -176 -242 -35 -122 -46 -216 -43 -370 3 -164 24 -231 91
-296 78 -76 229 -101 327 -54 166 78 300 379 299 669 0 210 -74 347 -216 400
-64 24 -173 39 -245 33z"/>
<path d="M5100 10514 l0 -257 62 7 c34 3 63 7 64 9 1 1 4 113 6 250 l3 247
-67 0 -68 0 0 -256z"/>
<path d="M9766 10743 c-1 -2 -33 -7 -70 -12 -38 -5 -70 -12 -72 -14 -4 -3 -16
-67 -29 -147 -3 -19 -10 -60 -15 -90 -5 -30 -12 -73 -15 -95 -3 -22 -7 -47
-10 -55 -2 -8 -6 -35 -9 -60 -4 -25 -17 -110 -30 -189 -23 -140 -24 -145 -57
-172 -57 -48 -90 -60 -132 -48 -28 7 -37 16 -39 32 0 12 -2 29 -2 37 -1 8 4
47 10 85 7 39 15 88 18 110 10 65 18 119 22 140 2 11 7 40 10 65 9 68 17 77
62 73 37 -3 40 -1 44 27 4 26 2 30 -21 31 -14 1 -32 1 -39 0 -22 -3 -23 22 -4
127 17 96 17 105 -8 104 -11 0 -118 -13 -152 -19 -39 -6 -41 -8 -54 -98 -15
-106 -19 -114 -54 -115 -10 0 -16 -11 -17 -30 -1 -19 2 -30 10 -29 7 1 17 1
23 0 6 -1 -2 -72 -23 -198 -55 -334 -53 -388 17 -444 27 -22 51 -30 96 -35 71
-8 107 7 199 82 34 28 56 41 52 30 -4 -10 -10 -42 -13 -72 l-7 -54 106 0 105
0 7 43 c4 23 9 56 11 72 3 17 7 41 9 55 2 14 8 53 14 87 14 77 14 80 37 224
16 108 20 118 45 133 40 24 82 20 109 -9 32 -35 32 -56 -7 -280 -32 -188 -16
-261 67 -302 61 -31 124 -30 186 3 27 14 51 29 54 33 3 3 15 14 27 25 22 18
22 18 53 -17 45 -52 102 -71 198 -65 128 7 202 55 222 141 10 48 -3 55 -41 22
-47 -39 -83 -55 -132 -56 -76 -3 -117 48 -117 148 0 39 0 39 53 52 194 49 313
220 247 356 -31 63 -81 89 -175 88 -38 0 -86 -7 -105 -15 -98 -41 -165 -141
-206 -308 -4 -14 -8 -83 -9 -154 -2 -143 -4 -148 -70 -139 -29 4 -69 38 -61
52 2 3 6 29 10 56 3 28 15 97 25 155 32 174 19 238 -61 303 -63 50 -154 47
-237 -9 -19 -13 -37 -22 -39 -19 -3 3 8 83 24 169 2 11 8 56 15 100 6 44 13
84 15 88 4 6 -63 7 -70 1z m860 -378 c25 -38 15 -132 -19 -184 -34 -52 -93
-91 -148 -98 l-42 -6 7 42 c9 59 45 159 72 203 44 70 100 88 130 43z"/>
<path d="M13060 10730 c-25 -4 -65 -10 -89 -14 -24 -3 -45 -7 -47 -8 -1 -2 -5
-23 -9 -48 -3 -25 -10 -70 -15 -100 -5 -30 -12 -71 -15 -90 -3 -19 -7 -46 -10
-60 -3 -14 -7 -38 -9 -55 -3 -16 -17 -102 -32 -190 -14 -88 -27 -170 -29 -183
-8 -71 -168 -158 -262 -144 -59 9 -90 83 -85 207 3 102 40 237 77 283 25 32
61 62 75 63 63 6 89 -12 85 -56 -3 -23 0 -25 41 -25 43 0 44 0 44 34 0 44 -39
92 -82 102 -151 33 -282 -18 -357 -137 -35 -57 -50 -68 -96 -74 -32 -3 -43 6
-49 40 -25 135 -86 194 -199 190 -219 -8 -347 -181 -348 -472 -1 -178 45 -260
158 -283 142 -30 257 29 327 168 34 67 49 122 60 216 3 27 7 49 8 50 13 8 61
26 68 26 5 0 6 -10 3 -22 -3 -13 -7 -76 -9 -140 -4 -135 10 -190 64 -244 46
-46 90 -58 185 -51 94 8 162 36 226 96 l44 41 -7 -52 c-4 -29 -10 -63 -13 -76
l-5 -23 107 3 c87 2 109 6 110 18 36 245 60 367 75 384 10 10 37 20 61 23 81
9 94 -29 74 -209 -9 -83 -2 -125 29 -160 69 -81 208 -76 290 10 l29 31 31 -34
c87 -92 341 -85 426 12 42 47 51 72 57 147 5 63 2 82 -27 161 -89 248 -96 272
-100 373 0 8 -7 11 -17 8 -10 -3 -33 -8 -52 -11 -19 -3 -37 -8 -40 -10 -4 -2
-27 -6 -51 -10 -47 -7 -59 -17 -61 -50 0 -11 -2 -27 -4 -35 -2 -8 -5 -26 -8
-40 -7 -38 -27 -112 -37 -142 -25 -72 -33 -88 -45 -88 -47 0 -91 -91 -87 -183
2 -41 -1 -49 -21 -56 -12 -5 -29 -7 -37 -5 -8 1 -23 3 -32 3 -32 2 -41 36 -27
114 7 40 13 88 12 108 -2 86 -91 179 -174 181 -16 1 -29 2 -29 3 0 0 60 43
134 95 74 52 133 96 131 98 -2 2 -35 4 -74 4 -68 0 -73 -1 -123 -40 -29 -22
-62 -49 -73 -59 -11 -10 -43 -36 -70 -58 -28 -22 -51 -43 -53 -47 -2 -5 -8 -8
-13 -8 -9 0 -8 25 6 107 3 18 7 45 9 60 3 16 11 69 20 118 9 50 18 108 21 130
4 22 8 52 11 68 5 30 3 30 -76 17z m-983 -385 c17 -35 16 -35 -11 -63 -35 -38
-45 -95 -21 -122 10 -11 25 -20 33 -20 12 0 14 -11 9 -62 -13 -137 -70 -238
-135 -238 -81 0 -112 41 -112 148 0 142 43 293 101 354 30 32 42 38 78 38 37
0 43 -3 58 -35z m1686 -100 c4 -25 22 -92 42 -150 19 -58 35 -123 35 -145 0
-47 -22 -105 -52 -137 -41 -44 -121 -38 -168 12 -20 21 -22 30 -14 52 7 22 16
28 44 30 73 6 111 108 56 150 l-24 19 18 70 c11 38 24 88 30 112 13 52 25 48
33 -13z"/>
<path d="M8130 10458 c-12 -4 -20 -17 -21 -30 0 -13 -2 -32 -4 -43 -11 -61
-15 -84 -20 -120 -4 -22 -22 -137 -41 -255 -20 -118 -38 -232 -41 -252 l-5
-38 106 0 c58 0 106 3 107 8 0 4 2 16 4 27 5 30 18 118 21 135 7 45 15 97 19
115 2 11 13 81 25 155 25 165 25 164 56 178 53 25 122 2 125 -40 0 -7 2 -22 4
-32 2 -11 0 -42 -5 -70 -52 -306 -53 -347 -15 -411 29 -51 67 -67 144 -64 40
2 56 8 75 28 21 22 62 99 54 102 -2 0 -17 2 -35 2 -64 4 -66 21 -29 230 32
180 32 211 4 267 -34 65 -86 102 -150 108 -45 3 -63 -1 -122 -31 l-68 -35 5
34 c6 33 5 34 -31 35 -20 0 -61 2 -90 3 -29 0 -62 -2 -72 -6z"/>
<path d="M11155 10345 c-9 -60 -24 -150 -32 -200 -8 -49 -17 -103 -20 -120
-13 -86 -44 -273 -48 -292 -5 -23 -4 -23 103 -23 l108 0 17 108 c22 139 26
165 38 235 6 32 12 74 15 95 18 146 35 178 98 186 38 5 56 -12 56 -52 0 -26
41 -46 82 -38 42 8 78 58 78 110 0 28 -7 45 -30 68 -29 28 -35 30 -89 26 -42
-3 -71 -12 -108 -35 l-51 -31 8 34 8 34 -57 1 c-31 0 -79 1 -108 2 l-51 2 -17
-110z"/>
<path d="M15766 10293 c-5 -93 -11 -204 -15 -248 -4 -44 -6 -82 -5 -84 2 -2
32 -6 67 -8 l64 -5 7 58 c3 33 9 145 13 250 l6 191 -48 6 c-89 13 -81 27 -89
-160z"/>
<path d="M5138 10023 c-26 -7 -22 -72 23 -365 24 -154 17 -147 109 -127 40 8
50 14 46 26 -6 13 -46 298 -62 431 l-5 42 -47 -1 c-26 -1 -55 -3 -64 -6z"/>
<path d="M15700 9643 c-7 -48 -28 -158 -46 -243 -19 -85 -30 -157 -26 -161 7
-7 93 -29 111 -29 6 0 15 17 21 38 11 39 74 362 83 423 l5 37 -55 7 c-31 4
-61 9 -68 11 -8 3 -16 -24 -25 -83z"/>
<path d="M5520 9575 c0 -8 12 -70 26 -137 151 -714 468 -1415 904 -1993 279
-370 645 -737 1016 -1017 757 -572 1686 -922 2648 -998 282 -22 741 -11 1031
25 1306 163 2508 844 3338 1890 477 602 822 1337 981 2093 14 67 26 129 26
137 0 13 -584 15 -4985 15 -4401 0 -4985 -2 -4985 -15z"/>
<path d="M5325 9305 c-5 -2 -29 -9 -52 -15 l-41 -10 38 -148 c56 -215 99 -344
113 -339 7 2 36 12 65 22 42 13 52 21 47 34 -17 43 -85 277 -105 364 -24 96
-30 105 -65 92z"/>
<path d="M15527 8917 c-16 -50 -51 -154 -79 -230 -28 -77 -46 -142 -42 -147 5
-5 33 -18 62 -29 l53 -21 10 28 c49 124 162 454 156 457 -10 5 -116 35 -123
35 -5 0 -22 -42 -37 -93z"/>
<path d="M5510 8588 c-30 -12 -56 -22 -58 -23 -10 -7 197 -465 210 -465 7 0
107 47 116 55 1 1 -22 53 -52 116 -30 63 -75 163 -99 224 -25 60 -49 110 -54
112 -4 1 -33 -8 -63 -19z"/>
<path d="M15190 8103 c-123 -243 -120 -221 -36 -265 37 -19 41 -19 52 -4 23
32 214 414 214 429 0 12 -86 57 -111 57 -4 0 -58 -98 -119 -217z"/>
<path d="M5831 7920 c-30 -17 -56 -32 -59 -34 -7 -8 215 -374 264 -434 1 -2
27 13 58 34 53 35 55 38 43 58 -62 94 -162 255 -201 324 -26 45 -48 82 -49 82
-1 0 -26 -14 -56 -30z"/>
<path d="M14895 7593 c-32 -49 -96 -139 -143 -202 l-84 -114 33 -28 c60 -49
77 -55 94 -33 88 113 280 393 273 398 -28 19 -106 66 -110 66 -3 0 -31 -39
-63 -87z"/>
<path d="M6235 7299 c-22 -16 -44 -34 -49 -39 -10 -10 79 -127 221 -292 l94
-108 50 42 c27 24 49 46 49 49 0 3 -38 49 -84 102 -46 54 -115 138 -152 187
-38 49 -73 89 -79 89 -5 0 -28 -13 -50 -30z"/>
<path d="M14496 7068 c-9 -12 -80 -91 -158 -176 -79 -85 -145 -158 -147 -164
-4 -12 68 -88 84 -88 23 0 350 351 343 368 -6 14 -85 82 -96 82 -6 0 -18 -10
-26 -22z"/>
<path d="M6710 6735 l-44 -45 44 -46 c74 -76 321 -294 333 -294 7 0 29 21 50
48 l39 47 -73 65 c-41 36 -122 111 -182 168 -59 56 -111 102 -115 102 -4 0
-28 -20 -52 -45z"/>
<path d="M13925 6498 c-65 -57 -130 -109 -294 -235 -6 -5 16 -44 48 -82 l28
-34 83 63 c46 35 124 98 174 139 49 42 101 85 114 97 l26 21 -44 52 c-24 28
-46 51 -49 50 -3 0 -42 -32 -86 -71z"/>
<path d="M7276 6251 c-20 -27 -36 -53 -36 -57 1 -16 387 -284 409 -284 10 0
71 92 71 106 -1 5 -51 42 -113 82 -62 40 -151 101 -200 137 -48 36 -89 65 -91
65 -2 0 -20 -22 -40 -49z"/>
<path d="M13311 6045 c-62 -40 -156 -97 -207 -126 -52 -29 -94 -56 -94 -59 1
-13 56 -104 65 -107 12 -4 138 67 310 175 66 41 121 76 123 77 5 5 -70 115
-77 114 -3 0 -57 -34 -120 -74z"/>
<path d="M7892 5841 l-33 -60 84 -45 c109 -60 351 -176 366 -176 11 0 66 108
59 115 -2 3 -352 180 -438 223 -3 1 -20 -25 -38 -57z"/>
<path d="M12705 5715 c-61 -30 -262 -116 -338 -144 l-26 -10 22 -61 c12 -33
28 -60 35 -60 23 0 443 177 460 194 9 9 -54 116 -68 115 -8 0 -46 -16 -85 -34z"/>
<path d="M8569 5542 c-38 -88 -51 -78 206 -164 127 -43 234 -76 240 -75 5 2
15 23 22 47 7 23 15 51 18 60 5 15 -18 26 -155 69 -89 29 -195 65 -236 81
l-75 29 -20 -47z"/>
<path d="M11987 5445 c-60 -19 -161 -46 -225 -61 -65 -16 -118 -29 -120 -30
-3 -1 25 -125 30 -130 7 -7 473 119 486 131 2 1 -5 30 -15 64 -12 41 -23 61
-33 60 -8 -1 -64 -16 -123 -34z"/>
<path d="M9271 5309 c-7 -34 -9 -65 -4 -70 16 -15 477 -98 488 -87 3 2 8 32
11 66 l7 61 -34 5 c-138 23 -288 50 -361 67 -48 10 -90 19 -92 19 -2 0 -9 -28
-15 -61z"/>
<path d="M11285 5290 c-60 -10 -168 -24 -239 -31 l-128 -12 5 -64 c2 -35 7
-66 9 -68 5 -6 238 20 386 42 l114 17 -7 54 c-8 61 -14 83 -24 81 -3 -1 -55
-10 -116 -19z"/>
<path d="M10007 5229 c-4 -13 -7 -43 -7 -65 0 -35 4 -43 23 -49 12 -3 167 -9
345 -12 l322 -6 0 44 c0 93 24 85 -283 92 -150 4 -299 10 -333 13 -58 6 -61 5
-67 -17z"/>
</g>
</svg>
